<svg width="159" height="72" viewBox="0 0 159 72" fill="none" xmlns="http://www.w3.org/2000/svg">
<path fill-rule="evenodd" clip-rule="evenodd" d="M159 0H67V72H159V0ZM27.2241 48L16.6284 24.1255H9.72412L0.102539 48H6.40869L8.18604 43.2832H18.8672L20.8325 48H27.2241ZM13.2617 29.8335L17.1069 39.1133H9.7583L13.2617 29.8335ZM40.5371 36.3447V32.7388C38.9876 31.9412 37.2502 31.5425 35.3247 31.5425C33.3195 31.5425 31.7017 32.0039 30.4712 32.9268C29.2521 33.8496 28.6426 35.0459 28.6426 36.5156C28.6426 37.5068 28.9616 38.4069 29.5996 39.2158C30.2376 40.0247 31.4225 40.7653 33.1543 41.4375C34.8861 42.1097 35.9001 42.5825 36.1963 42.856C36.5039 43.1294 36.6577 43.4199 36.6577 43.7275C36.6577 44.5251 35.8374 44.9238 34.1968 44.9238C32.7954 44.9238 31.0579 44.4681 28.9844 43.5566V47.1284C30.6706 47.9146 32.596 48.3076 34.7607 48.3076C36.8685 48.3076 38.492 47.8519 39.6313 46.9404C40.7707 46.029 41.3403 44.7358 41.3403 43.061C41.3403 42.0015 40.9871 41.0273 40.2808 40.1387C39.5744 39.25 38.3667 38.4696 36.6577 37.7974C34.9487 37.1138 33.9632 36.6694 33.7012 36.4644C33.4505 36.2479 33.3252 36.0314 33.3252 35.8149C33.3252 34.9832 33.9347 34.5674 35.1538 34.5674C36.8058 34.5674 38.6003 35.1598 40.5371 36.3447ZM55.4736 36.3447V32.7388C53.9241 31.9412 52.1867 31.5425 50.2612 31.5425C48.256 31.5425 46.6382 32.0039 45.4077 32.9268C44.1886 33.8496 43.5791 35.0459 43.5791 36.5156C43.5791 37.5068 43.8981 38.4069 44.5361 39.2158C45.1741 40.0247 46.3591 40.7653 48.0908 41.4375C49.8226 42.1097 50.8366 42.5825 51.1328 42.856C51.4404 43.1294 51.5942 43.4199 51.5942 43.7275C51.5942 44.5251 50.7739 44.9238 49.1333 44.9238C47.7319 44.9238 45.9945 44.4681 43.9209 43.5566V47.1284C45.6071 47.9146 47.5325 48.3076 49.6973 48.3076C51.805 48.3076 53.4285 47.8519 54.5679 46.9404C55.7072 46.029 56.2769 44.7358 56.2769 43.061C56.2769 42.0015 55.9237 41.0273 55.2173 40.1387C54.5109 39.25 53.3032 38.4696 51.5942 37.7974C49.8853 37.1138 48.8997 36.6694 48.6377 36.4644C48.387 36.2479 48.2617 36.0314 48.2617 35.8149C48.2617 34.9832 48.8713 34.5674 50.0903 34.5674C51.7424 34.5674 53.5368 35.1598 55.4736 36.3447ZM59.9683 24.6382C59.4214 25.1851 59.1479 25.8459 59.1479 26.6206C59.1479 27.384 59.4214 28.0448 59.9683 28.603C60.5151 29.1499 61.1702 29.4233 61.9336 29.4233C62.7083 29.4233 63.3691 29.1499 63.916 28.603C64.4629 28.0448 64.7363 27.384 64.7363 26.6206C64.7363 25.8459 64.4629 25.1851 63.916 24.6382C63.3691 24.0913 62.7083 23.8179 61.9336 23.8179C61.1702 23.8179 60.5151 24.0913 59.9683 24.6382ZM64.4971 48V31.8672H59.4214V48H64.4971ZM85.2612 35.2681V31.8672H75.6738C73.3268 31.8672 71.5381 32.4596 70.3076 33.6445C69.0771 34.8294 68.4619 36.1966 68.4619 37.7461C68.4619 39.0107 68.8892 40.0988 69.7437 41.0103C70.5981 41.9217 71.6805 42.4914 72.9907 42.7192C71.0311 43.1636 70.0513 43.9782 70.0513 45.1631C70.0513 46.1771 70.7007 46.8778 71.9995 47.2651C69.1284 48.0399 67.6929 49.4071 67.6929 51.3667C67.6929 52.7795 68.422 53.9131 69.8804 54.7676C71.3387 55.6221 73.4806 56.0493 76.3062 56.0493C79.0747 56.0493 81.1882 55.5879 82.6465 54.665C84.1162 53.7422 84.8511 52.3978 84.8511 50.6318C84.8511 49.5267 84.4181 48.4956 83.5522 47.5386C82.6978 46.5701 81.1711 45.9948 78.9722 45.8125C76.7847 45.6188 75.5314 45.4365 75.2124 45.2656C74.8934 45.0833 74.7339 44.8498 74.7339 44.5649C74.7339 44.2801 74.8535 44.0522 75.0928 43.8813C75.3434 43.6991 76.3802 43.5111 78.2031 43.3174C80.0374 43.1123 81.4217 42.48 82.356 41.4204C83.2902 40.3608 83.7573 39.2044 83.7573 37.9512C83.7573 37.0739 83.4896 36.1795 82.9541 35.2681H85.2612ZM74.0332 35.7295C74.6029 35.1598 75.3035 34.875 76.1353 34.875C76.967 34.875 77.6562 35.1484 78.2031 35.6953C78.7614 36.2308 79.0405 36.8802 79.0405 37.6436C79.0405 38.4867 78.7557 39.2101 78.186 39.814C77.6164 40.4178 76.9328 40.7197 76.1353 40.7197C75.3377 40.7197 74.6484 40.4349 74.0674 39.8652C73.4863 39.2842 73.1958 38.6006 73.1958 37.8145C73.1958 36.9941 73.4749 36.2992 74.0332 35.7295ZM79.1772 52.4434C78.5051 52.8421 77.6278 53.0415 76.5454 53.0415C73.7769 53.0415 72.3926 52.4092 72.3926 51.1445C72.3926 50.5635 72.7344 50.0964 73.418 49.7432C74.1016 49.4014 75.0415 49.2305 76.2378 49.2305C78.8696 49.2305 80.1855 49.8229 80.1855 51.0078C80.1855 51.5661 79.8494 52.0446 79.1772 52.4434ZM104.265 46.8379V44.0181C103.411 44.6219 102.773 44.9238 102.351 44.9238C101.793 44.9238 101.514 44.5479 101.514 43.7959V36.4473C101.514 33.1774 99.235 31.5425 94.6777 31.5425C92.137 31.5425 89.8071 32.1976 87.688 33.5078V37.6436C89.4995 35.8434 91.4819 34.9434 93.6353 34.9434C95.6177 34.9434 96.5519 35.8434 96.438 37.6436C91.8579 38.9993 89.1121 40.1102 88.2007 40.9761C87.3006 41.8306 86.8506 42.9585 86.8506 44.3599C86.8506 45.408 87.2892 46.3309 88.1665 47.1284C89.0438 47.9146 90.1091 48.3076 91.3623 48.3076C93.1396 48.3076 94.9113 47.7038 96.6772 46.4961C96.9735 47.7038 97.9191 48.3076 99.5142 48.3076C100.995 48.3076 102.579 47.8177 104.265 46.8379ZM96.438 40.1899V44.0864C95.5265 44.8953 94.5923 45.2998 93.6353 45.2998C93.1795 45.2998 92.7922 45.1346 92.4731 44.8042C92.1541 44.4624 91.9946 44.0579 91.9946 43.5908C91.9946 42.8617 92.3079 42.2635 92.9346 41.7964C93.5726 41.3179 94.7404 40.7824 96.438 40.1899ZM111.562 33.9351V31.8672H106.487V48H111.562V37.1821C112.816 35.6896 114.109 34.9434 115.442 34.9434C116.376 34.9434 117.122 35.2453 117.681 35.8491C118.25 36.453 118.535 37.3188 118.535 38.4468V48H123.594V37.6777C124.779 35.8548 126.112 34.9434 127.593 34.9434C128.527 34.9434 129.256 35.2624 129.78 35.9004C130.304 36.527 130.566 37.41 130.566 38.5493V48H135.642V37.6436C135.642 35.832 135.055 34.3623 133.882 33.2344C132.708 32.1064 131.193 31.5425 129.336 31.5425C127.046 31.5425 124.927 32.6875 122.979 34.9775C121.873 32.6875 119.937 31.5425 117.168 31.5425C115.151 31.5425 113.283 32.34 111.562 33.9351ZM155.654 46.1885V42.9927C153.569 44.5308 151.576 45.2998 149.673 45.2998C148.101 45.2998 146.847 44.9067 145.913 44.1206C144.979 43.3345 144.46 42.2122 144.358 40.7539H155.945C156.047 37.9512 155.301 35.7181 153.706 34.0547C152.122 32.3799 150.089 31.5425 147.605 31.5425C145.133 31.5425 143.099 32.3343 141.504 33.918C139.909 35.5016 139.111 37.5239 139.111 39.9849C139.111 42.4914 139.96 44.508 141.658 46.0347C143.355 47.55 145.623 48.3076 148.459 48.3076C151.319 48.3076 153.717 47.6012 155.654 46.1885ZM147.964 34.5674C150.026 34.5674 151.194 35.7409 151.467 38.0879H144.46C144.711 35.7409 145.879 34.5674 147.964 34.5674ZM147.297 29.4575L153.074 24.3477H147.297L144.7 29.4575H147.297Z" fill="#85B940"/>
</svg>
